<svg width="16" height="16" viewBox="0 0 16 16" fill="none" xmlns="http://www.w3.org/2000/svg">
<path d="M7.99997 0.114288C3.65712 0.114288 0.114258 3.65715 0.114258 8C0.114258 12.3429 3.65712 15.8857 7.99997 15.8857C12.3428 15.8857 15.8857 12.3429 15.8857 8C15.8857 3.65715 12.3428 0.114288 7.99997 0.114288ZM7.99997 1.37143C9.71426 1.37143 11.2 2.05715 12.3428 2.97143C12.2285 3.2 12 3.31429 11.7714 3.65715C11.2 4.22857 10.2857 4.91429 8.91426 5.37143C7.99997 3.65715 7.08569 2.4 6.51426 1.6C6.9714 1.48572 7.54283 1.37143 7.99997 1.37143ZM5.25712 2.05715C5.71426 2.74286 6.74283 4 7.65712 5.82857C5.02854 6.51429 2.51426 6.62857 1.59997 6.62857C1.94283 4.57143 3.31426 2.85715 5.25712 2.05715ZM13.2571 4C14.0571 5.02857 14.5143 6.4 14.6285 7.77143C14.0571 7.65715 13.1428 7.54286 12 7.54286C11.4285 7.54286 10.7428 7.54286 10.0571 7.65715C9.94283 7.31429 9.71426 6.97143 9.48569 6.51429C10.9714 5.94286 12 5.14286 12.6857 4.57143C12.9143 4.45715 13.1428 4.22857 13.2571 4ZM8.22854 6.97143C8.34283 7.31429 8.5714 7.54286 8.68569 7.88572C5.82854 8.68572 3.88569 11.0857 2.9714 12.2286C2.05712 11.2 1.3714 9.6 1.3714 8C1.3714 8 1.3714 8 1.3714 7.88572C2.28569 7.88572 5.14283 7.88572 8.22854 6.97143ZM12 8.91429C13.1428 8.91429 13.9428 9.02857 14.5143 9.25715C14.1714 10.9714 13.2571 12.5714 11.7714 13.4857C11.5428 11.7714 11.0857 10.2857 10.6285 8.91429C11.0857 8.91429 11.5428 8.91429 12 8.91429ZM9.25712 9.14286C9.82854 10.6286 10.4 12.3429 10.6285 14.0571C9.82854 14.4 8.91426 14.6286 7.99997 14.6286C6.51426 14.6286 5.14283 14.1714 3.99997 13.2571C4.68569 12.3429 6.62854 9.82857 9.25712 9.14286Z" fill="white"/>
</svg>
