<svg width="16" height="16" viewBox="0 0 16 16" fill="none" xmlns="http://www.w3.org/2000/svg">
<g clip-path="url(#clip0_1_510)">
<path d="M15.9685 3.04598C15.3785 3.30531 14.7485 3.48198 14.0851 3.56265C14.7611 3.15531 15.2811 2.51331 15.5271 1.74731C14.8931 2.11731 14.1905 2.38665 13.4425 2.53665C12.8452 1.89731 11.9938 1.49731 11.0485 1.49731C9.23715 1.49731 7.76848 2.96598 7.76848 4.77531C7.76848 5.03531 7.79848 5.28531 7.85315 5.52464C5.12648 5.39598 2.70981 4.08665 1.09248 2.10731C0.807812 2.58865 0.648479 3.14798 0.648479 3.75731C0.648479 4.89731 1.22848 5.89931 2.10715 6.48798C1.56915 6.47065 1.06315 6.32265 0.621812 6.07731V6.11798C0.621812 7.70798 1.75048 9.03398 3.25248 9.33598C2.97715 9.40998 2.68648 9.44998 2.38848 9.44998C2.17915 9.44998 1.97848 9.42998 1.77781 9.39264C2.19848 10.6946 3.40781 11.644 4.84715 11.6706C3.72715 12.5499 2.30781 13.0739 0.779146 13.0739C0.519146 13.0739 0.259812 13.0586 -0.000854492 13.0294C1.45848 13.9586 3.17781 14.5019 5.03715 14.5019C11.0731 14.5019 14.3698 9.50464 14.3698 5.17798C14.3698 5.03865 14.3698 4.89798 14.3598 4.75798C15.0005 4.29864 15.5598 3.71798 15.9998 3.05931L15.9685 3.04598Z" fill="white"/>
</g>
<defs>
<clipPath id="clip0_1_510">
<rect width="16" height="16" fill="white" transform="translate(0 16) rotate(-90)"/>
</clipPath>
</defs>
</svg>
